<svg xmlns="http://www.w3.org/2000/svg" width="109" height="108" viewBox="0 0 109 108" fill="none"><path d="M66.0328 2.10938H30.0059V32.2135H78.6164V14.615L66.0328 2.10938Z" fill="white" stroke="black" stroke-width="2" stroke-miterlimit="10" stroke-linecap="round" stroke-linejoin="round"></path><path d="M66.0332 14.615H78.6168L66.0332 2.10938V14.615Z" stroke="black" stroke-width="2" stroke-miterlimit="10" stroke-linecap="round" stroke-linejoin="round"></path><path d="M100.057 65.252H8.56641V38.9154C8.56641 35.2126 11.585 32.2109 15.3088 32.2109H93.3141C97.0378 32.2109 100.056 35.2126 100.056 38.9154V65.252H100.057Z" fill="#F69064"></path><path d="M29.5555 91.878H15.3088C11.585 91.878 8.56641 88.8763 8.56641 85.1736V38.9154C8.56641 35.2126 11.585 32.2109 15.3088 32.2109H93.3141C97.0378 32.2109 100.056 35.2126 100.056 38.9154V85.1736C100.056 88.8763 97.0378 91.878 93.3141 91.878H79.4375" stroke="black" stroke-width="2" stroke-miterlimit="10" stroke-linecap="round" stroke-linejoin="round"></path><path d="M78.6162 77.8281H30.0059V105.888H78.6162V77.8281Z" fill="white" stroke="black" stroke-width="2" stroke-miterlimit="10" stroke-linecap="round" stroke-linejoin="round"></path><path d="M24.2012 77.8281H84.4238" stroke="black" stroke-width="2" stroke-miterlimit="10" stroke-linecap="round" stroke-linejoin="round"></path><path d="M30.0062 32.2123H16.0781V24.5069C16.0781 21.2197 18.7582 18.5547 22.064 18.5547H30.0062V32.2123Z" stroke="black" stroke-width="2" stroke-miterlimit="10" stroke-linecap="round" stroke-linejoin="round"></path><path d="M92.5453 32.2123H78.6172V18.5547H86.5594C89.8652 18.5547 92.5453 21.2197 92.5453 24.5069V32.2123Z" stroke="black" stroke-width="2" stroke-miterlimit="10" stroke-linecap="round" stroke-linejoin="round"></path><path d="M68.8939 54.9934C66.5874 54.9934 64.7109 53.1285 64.7109 50.8364C64.7109 48.5444 66.5874 46.6797 68.8939 46.6797C71.2002 46.6797 73.0767 48.5444 73.0767 50.8364C73.0767 53.1285 71.2002 54.9934 68.8939 54.9934Z" fill="white" stroke="black" stroke-width="2" stroke-miterlimit="10" stroke-linecap="round" stroke-linejoin="round"></path><path d="M85.4115 54.9934C83.105 54.9934 81.2285 53.1285 81.2285 50.8364C81.2285 48.5444 83.105 46.6797 85.4115 46.6797C87.718 46.6797 89.5945 48.5444 89.5945 50.8364C89.5945 53.1285 87.7182 54.9934 85.4115 54.9934Z" fill="white" stroke="black" stroke-width="2" stroke-miterlimit="10" stroke-linecap="round" stroke-linejoin="round"></path></svg>