<svg xmlns="http://www.w3.org/2000/svg" width="108" height="108" viewBox="0 0 108 108" fill="none"><path d="M48.0625 95.3376C65.5371 95.3376 79.7031 81.2622 79.7031 63.8993C79.7031 46.5364 65.5371 32.4609 48.0625 32.4609C30.5879 32.4609 16.4219 46.5364 16.4219 63.8993C16.4219 81.2622 30.5879 95.3376 48.0625 95.3376Z" stroke="black" stroke-width="2" stroke-miterlimit="10" stroke-linecap="round" stroke-linejoin="round"></path><path d="M85.0894 43.6503C88.4243 49.6551 90.3209 56.557 90.3209 63.901C90.3209 87.0897 71.4019 105.888 48.0638 105.888C24.7254 105.888 5.80664 87.0897 5.80664 63.901C5.80664 40.712 24.7254 21.9141 48.0638 21.9141C52.2169 21.9141 56.2334 22.5093 60.0237 23.6201" stroke="black" stroke-width="2" stroke-miterlimit="10" stroke-linecap="round" stroke-linejoin="round"></path><path d="M65.4657 68.1332H51.9062C51.9062 68.1332 59.0853 55.5579 60.2701 54.2075C61.468 52.8421 62.6025 53.6937 62.7105 54.8983C62.8187 56.1026 62.6565 74.3052 62.6565 74.3052" stroke="black" stroke-width="2" stroke-miterlimit="10" stroke-linecap="round" stroke-linejoin="round"></path><path d="M44.3721 74.334C44.3721 74.334 33.259 74.458 32.6929 74.3024C32.1265 74.1469 33.6012 73.0363 41.44 63.7956C42.9039 62.0699 43.7099 60.614 44.0529 59.3941L44.1742 58.6099C44.1742 55.7447 41.3586 53.4219 37.886 53.4219C34.8301 53.4219 32.2832 55.2201 31.7158 57.6041" stroke="black" stroke-width="2" stroke-miterlimit="10" stroke-linecap="round" stroke-linejoin="round"></path><path d="M81.1113 46.1367C93.9261 46.1367 104.314 35.8086 104.314 23.0683C104.314 10.328 93.9261 0 81.1113 0C68.2966 0 57.9082 10.328 57.9082 23.0683C57.9082 35.8086 68.2966 46.1367 81.1113 46.1367Z" fill="#F69064"></path><path d="M81.1113 12.5859V23.0655H91.6582" stroke="black" stroke-width="2" stroke-miterlimit="10" stroke-linecap="round" stroke-linejoin="round"></path></svg>