<svg xmlns="http://www.w3.org/2000/svg" width="72" height="72" viewBox="0 0 72 72" fill="none"><g clip-path="url(#clip0_971_3231)"><path fill-rule="evenodd" clip-rule="evenodd" d="M37.5202 34.4763C41.2933 38.2455 47.4053 38.2455 51.1784 34.4763C54.9476 30.7071 54.9476 24.5912 51.1784 20.822C47.4053 17.0489 41.2933 17.0489 37.5202 20.822C33.7511 24.5912 33.7511 30.7071 37.5202 34.4763Z" fill="#F69064"></path><path d="M8.48242 41.1099L30.8862 63.5176C60.6928 46.3054 69.7969 24.6068 70.5938 1.40625C47.3932 2.19909 25.6946 11.3072 8.48242 41.1099Z" stroke="black" stroke-width="2" stroke-miterlimit="10" stroke-linecap="round" stroke-linejoin="round"></path><path d="M57.7123 40.625C60.1507 47.9043 59.2821 57.642 53.1861 62.8854L44.2254 70.595L37.0098 59.7258" stroke="black" stroke-width="2" stroke-miterlimit="10" stroke-linecap="round" stroke-linejoin="round"></path><path d="M31.3722 14.2858C24.0968 11.8514 14.3551 12.7199 9.11587 18.8119L1.40625 27.7727L12.2715 34.9883" stroke="black" stroke-width="2" stroke-miterlimit="10" stroke-linecap="round" stroke-linejoin="round"></path><path d="M67.681 20.5365L51.4648 4.32031" stroke="black" stroke-width="2" stroke-miterlimit="10" stroke-linecap="round" stroke-linejoin="round"></path><path d="M21.9655 63.6875L16.4512 69.1979" stroke="black" stroke-width="2" stroke-miterlimit="10" stroke-linecap="round" stroke-linejoin="round"></path><path d="M15.1405 56.8594L3.77734 68.2186" stroke="black" stroke-width="2" stroke-miterlimit="10" stroke-linecap="round" stroke-linejoin="round"></path><path d="M8.3112 50.0312L2.79688 55.5456" stroke="black" stroke-width="2" stroke-miterlimit="10" stroke-linecap="round" stroke-linejoin="round"></path></g><defs><clipPath id="clip0_971_3231"><rect width="72" height="72" fill="white"></rect></clipPath></defs></svg>