<svg xmlns="http://www.w3.org/2000/svg" width="108" height="108" viewBox="0 0 108 108" fill="none"><path d="M54.0052 88.5938C36.2974 82.6911 24.3535 66.1196 24.3535 47.4542V34.2322C32.5417 34.2322 39.1795 27.5944 39.1795 19.4062H68.8312C68.8312 27.5944 75.4689 34.2322 83.6571 34.2322V47.4542C83.6569 66.1196 71.713 82.6911 54.0052 88.5938Z" fill="#F69064"></path><path d="M42.0254 54.7516L49.5135 62.2398L65.9875 45.7656" stroke="black" stroke-width="2" stroke-miterlimit="10" stroke-linecap="round" stroke-linejoin="round"></path><path d="M3.77148 81.4711L11.788 84.2116L14.5287 76.1953" stroke="black" stroke-width="2" stroke-miterlimit="10" stroke-linecap="round" stroke-linejoin="round"></path><path d="M11.8135 84.213C5.7094 75.7029 2.11523 65.2719 2.11523 54C2.11523 25.3416 25.3475 2.10938 54.0059 2.10938C65.2777 2.10938 75.7088 5.70354 84.2189 11.8076" stroke="black" stroke-width="2" stroke-miterlimit="10" stroke-linecap="round" stroke-linejoin="round"></path><path d="M104.242 26.5296L96.2251 23.7891L93.4844 31.8053" stroke="black" stroke-width="2" stroke-miterlimit="10" stroke-linecap="round" stroke-linejoin="round"></path><path d="M96.1983 23.7891C102.302 32.2991 105.897 42.7302 105.897 54.0021C105.897 82.6605 82.6644 105.893 54.006 105.893C42.7341 105.893 32.303 102.299 23.793 96.1944" stroke="black" stroke-width="2" stroke-miterlimit="10" stroke-linecap="round" stroke-linejoin="round"></path></svg>