<svg xmlns="http://www.w3.org/2000/svg" width="108" height="108" viewBox="0 0 108 108" fill="none"><path fill-rule="evenodd" clip-rule="evenodd" d="M56.2852 51.7105C61.9449 57.3643 71.1129 57.3643 76.7725 51.7105C82.4263 46.0568 82.4263 36.8829 76.7725 31.2291C71.1129 25.5695 61.9449 25.5695 56.2852 31.2291C50.6315 36.8829 50.6315 46.0568 56.2852 51.7105Z" fill="#F69064"></path><path d="M12.7285 61.6648L46.3342 95.2765C91.0441 69.4581 104.7 36.9103 105.896 2.10938C71.0947 3.29864 38.5468 16.9609 12.7285 61.6648Z" stroke="black" stroke-width="2" stroke-miterlimit="10" stroke-linecap="round" stroke-linejoin="round"></path><path d="M86.5753 60.9375C90.2329 71.8565 88.93 86.463 79.786 94.3281L66.3449 105.892L55.5215 89.5887" stroke="black" stroke-width="2" stroke-miterlimit="10" stroke-linecap="round" stroke-linejoin="round"></path><path d="M47.0641 21.4248C36.1511 17.7732 21.5386 19.076 13.6797 28.214L2.11523 41.6551L18.4131 52.4786" stroke="black" stroke-width="2" stroke-miterlimit="10" stroke-linecap="round" stroke-linejoin="round"></path><path d="M101.527 30.8008L77.2031 6.47656" stroke="black" stroke-width="2" stroke-miterlimit="10" stroke-linecap="round" stroke-linejoin="round"></path><path d="M32.9551 95.5312L24.6836 103.797" stroke="black" stroke-width="2" stroke-miterlimit="10" stroke-linecap="round" stroke-linejoin="round"></path><path d="M22.7167 85.2891L5.67188 102.328" stroke="black" stroke-width="2" stroke-miterlimit="10" stroke-linecap="round" stroke-linejoin="round"></path><path d="M12.4727 75.0469L4.20117 83.3184" stroke="black" stroke-width="2" stroke-miterlimit="10" stroke-linecap="round" stroke-linejoin="round"></path></svg>