<svg xmlns="http://www.w3.org/2000/svg" width="72" height="72" viewBox="0 0 72 72" fill="none"><g clip-path="url(#clip0_971_3212)"><path d="M59.2967 7.05469V12.7026C59.2967 14.2628 58.0329 15.5266 56.4727 15.5266C54.9124 15.5266 53.6487 14.2628 53.6487 12.7026V7.05469C50.25 8.25633 47.8467 11.5633 48.0076 15.4094C48.1446 18.6529 50.137 21.4427 52.9426 22.7404V29.2017C55.2958 29.7949 57.649 29.7947 60.0025 29.2017V22.7446C62.9184 21.4048 64.9446 18.4606 64.9446 15.0423C64.9446 11.3543 62.5865 8.21822 59.2967 7.05469Z" fill="#F69064"></path><path d="M13.7227 10.5708C23.238 2.69906 36.0448 0.822557 47.129 4.94554" stroke="black" stroke-width="2" stroke-miterlimit="10" stroke-linecap="round" stroke-linejoin="round"></path><path d="M13.7207 62.8438C26.2117 73.1781 44.3748 73.1781 56.866 62.8438" stroke="black" stroke-width="2" stroke-miterlimit="10" stroke-linecap="round" stroke-linejoin="round"></path><path d="M9.15704 15.1328C-1.17735 27.6237 -1.17735 45.787 9.15704 58.2781" stroke="black" stroke-width="2" stroke-miterlimit="10" stroke-linecap="round" stroke-linejoin="round"></path><path d="M67.0571 24.875C71.18 35.9591 69.3035 48.7659 61.4316 58.2813" stroke="black" stroke-width="2" stroke-miterlimit="10" stroke-linecap="round" stroke-linejoin="round"></path><path d="M24.0645 20.9282C29.5685 17 36.6694 16.3011 42.7423 18.8284" stroke="black" stroke-width="2" stroke-miterlimit="10" stroke-linecap="round" stroke-linejoin="round"></path><path d="M24.0645 52.4844C30.7637 57.2642 39.8258 57.2642 46.5249 52.4844" stroke="black" stroke-width="2" stroke-miterlimit="10" stroke-linecap="round" stroke-linejoin="round"></path><path d="M19.5146 25.4766C14.7347 32.1757 14.7347 41.238 19.5146 47.9369" stroke="black" stroke-width="2" stroke-miterlimit="10" stroke-linecap="round" stroke-linejoin="round"></path><path d="M51.8095 28.8594C54.6405 34.6952 54.1293 41.7439 50.2773 47.1419" stroke="black" stroke-width="2" stroke-miterlimit="10" stroke-linecap="round" stroke-linejoin="round"></path><path d="M56.4734 29.646C64.2716 29.646 70.5933 23.3243 70.5933 15.5261C70.5933 7.72793 64.2716 1.40625 56.4734 1.40625C48.6752 1.40625 42.3535 7.72793 42.3535 15.5261C42.3535 23.3243 48.6752 29.646 56.4734 29.646Z" stroke="black" stroke-width="2" stroke-miterlimit="10" stroke-linecap="round" stroke-linejoin="round"></path><path d="M9.05068 62.9506C7.7904 61.6903 7.7904 59.6468 9.05068 58.3866L19.3201 48.1172C20.5805 46.8568 22.6239 46.8568 23.8842 48.1172C25.1446 49.3775 25.1446 51.4209 23.8842 52.6813L13.6148 62.9506C12.3545 64.2109 10.3111 64.2109 9.05068 62.9506Z" stroke="black" stroke-width="2" stroke-miterlimit="10" stroke-linecap="round" stroke-linejoin="round"></path><path d="M61.5386 62.9506C60.2783 64.211 58.2348 64.211 56.9745 62.9506L46.7051 52.6813C45.4447 51.4209 45.4447 49.3775 46.7051 48.1172C47.9655 46.8568 50.0089 46.8568 51.2692 48.1172L61.5386 58.3866C62.7991 59.6466 62.7991 61.6903 61.5386 62.9506Z" stroke="black" stroke-width="2" stroke-miterlimit="10" stroke-linecap="round" stroke-linejoin="round"></path><path d="M9.05068 10.4609C10.3111 9.20052 12.3545 9.20052 13.6148 10.4609L23.8842 20.7302C25.1446 21.9906 25.1446 24.0341 23.8842 25.2945C22.6239 26.5549 20.5805 26.5549 19.3201 25.2945L9.05068 15.0251C7.7904 13.7648 7.7904 11.7211 9.05068 10.4609Z" stroke="black" stroke-width="2" stroke-miterlimit="10" stroke-linecap="round" stroke-linejoin="round"></path></g><defs><clipPath id="clip0_971_3212"><rect width="72" height="72" fill="white"></rect></clipPath></defs></svg>