<svg xmlns="http://www.w3.org/2000/svg" width="72" height="72" viewBox="0 0 72 72" fill="none"><path d="M50.0288 22.5938L67.7855 22.6191C69.3366 22.6205 70.5938 23.8791 70.5938 25.4316V62.1122C70.5938 63.6661 69.3352 64.9247 67.7812 64.9247H4.21875C2.66484 64.9247 1.40625 63.6661 1.40625 62.1122V35.2922V25.4062C1.40625 23.8523 2.66484 22.5938 4.21875 22.5938H21.9703" stroke="black" stroke-width="2" stroke-miterlimit="10" stroke-linecap="round" stroke-linejoin="round"></path><path d="M70.3573 29.6484H47.2793" stroke="black" stroke-width="2" stroke-miterlimit="10" stroke-linecap="round" stroke-linejoin="round"></path><path d="M1.54102 29.6484H24.7192H24.6695" stroke="black" stroke-width="2" stroke-miterlimit="10" stroke-linecap="round" stroke-linejoin="round"></path><path d="M1.40625 35.2891H70.4933" stroke="black" stroke-width="2" stroke-miterlimit="10" stroke-linecap="round" stroke-linejoin="round"></path><path d="M8.45703 46.5781H25.3763" stroke="black" stroke-width="2" stroke-miterlimit="10" stroke-linecap="round" stroke-linejoin="round"></path><path d="M16.916 53.6328H25.3756" stroke="black" stroke-width="2" stroke-miterlimit="10" stroke-linecap="round" stroke-linejoin="round"></path><circle cx="50.7539" cy="57.8672" r="1.40625" fill="black"></circle><circle cx="56.3945" cy="57.8672" r="1.40625" fill="black"></circle><circle cx="62.0332" cy="57.8672" r="1.40625" fill="black"></circle><path d="M64.8542 42.3438H43.7051V50.8099H64.8542V42.3438Z" fill="#F69064"></path><path d="M35.9999 36.6978C27.45 36.6978 20.4941 29.737 20.4941 21.181C20.4941 12.625 27.45 5.66406 35.9999 5.66406C44.5497 5.66406 51.5056 12.625 51.5056 21.181C51.5056 29.737 44.5497 36.6978 35.9999 36.6978Z" fill="#F69064"></path><path d="M29.0215 22.182L33.0095 26.1731L42.9794 16.1953" stroke="black" stroke-width="2" stroke-miterlimit="10" stroke-linecap="round" stroke-linejoin="round"></path></svg>