<svg xmlns="http://www.w3.org/2000/svg" width="108" height="108" viewBox="0 0 108 108" fill="none"><path d="M6.33398 105.891H101.678C103.998 105.891 105.897 103.988 105.897 101.663V95.3224H66.6621C66.6621 96.4849 65.7131 97.436 64.5529 97.436H43.459C42.2988 97.436 41.3496 96.4849 41.3496 95.3224H2.11523V101.663C2.11523 103.988 4.01346 105.891 6.33398 105.891Z" stroke="black" stroke-width="2" stroke-miterlimit="22.926" stroke-linecap="round" stroke-linejoin="round"></path><path d="M14.9824 21.3443H10.5529C8.23263 21.3443 6.33398 23.2468 6.33398 25.5717V94.2656M101.678 94.2656V25.5717C101.678 23.2468 99.7793 21.3443 97.459 21.3443H93.0295" stroke="black" stroke-width="2" stroke-miterlimit="22.926" stroke-linecap="round" stroke-linejoin="round"></path><path d="M7.65234 86.8672H100.36" stroke="black" stroke-width="2" stroke-miterlimit="22.926" stroke-linecap="round" stroke-linejoin="round"></path><path d="M16.0371 85.5938V2.10427H91.9746V85.5938" stroke="black" stroke-width="2" stroke-miterlimit="22.926" stroke-linecap="round" stroke-linejoin="round"></path><path fill-rule="evenodd" clip-rule="evenodd" d="M24.4746 49.6719H83.5373V10.5685H24.4746V49.6719Z" fill="#F69064"></path><path d="M67.084 66.5781C69.4079 66.5781 71.3029 64.6791 71.3029 62.3507C71.3029 60.0226 69.4079 58.1235 67.084 58.1235C64.7603 58.1235 62.8652 60.0226 62.8652 62.3507C62.8652 64.6791 64.7603 66.5781 67.084 66.5781Z" stroke="black" stroke-width="2" stroke-miterlimit="22.926" stroke-linecap="round" stroke-linejoin="round"></path><path d="M37.1006 78.4141C39.4243 78.4141 41.3193 76.515 41.3193 74.1867C41.3193 71.8585 39.4243 69.9595 37.1006 69.9595C34.7769 69.9595 32.8818 71.8585 32.8818 74.1867C32.8818 76.515 34.7769 78.4141 37.1006 78.4141Z" stroke="black" stroke-width="2" stroke-miterlimit="22.926" stroke-linecap="round" stroke-linejoin="round"></path><path d="M71.3034 62.3438H83.5373M24.4746 62.3438H62.8657" stroke="black" stroke-width="2" stroke-miterlimit="22.926" stroke-linecap="round" stroke-linejoin="round"></path><path d="M41.3194 74.1875H83.5373M24.4746 74.1875H32.8819" stroke="black" stroke-width="2" stroke-miterlimit="22.926" stroke-linecap="round" stroke-linejoin="round"></path><path d="M54.0059 20.8778L63.498 26.3693V37.3524L54.0059 42.8438L44.5137 37.3524V26.3693L54.0059 20.8778Z" fill="white" stroke="black" stroke-width="2" stroke-miterlimit="22.926" stroke-linecap="round" stroke-linejoin="round"></path><path d="M63.3384 26.468L54.0057 31.8672L44.6875 26.4763" stroke="black" stroke-width="2" stroke-miterlimit="22.926" stroke-linecap="round" stroke-linejoin="round"></path><path d="M54.0059 31.8647V42.0234" stroke="black" stroke-width="2" stroke-miterlimit="22.926" stroke-linecap="round" stroke-linejoin="round"></path><path d="M44.5138 37.3551L39.8477 40.0547" stroke="black" stroke-width="2" stroke-miterlimit="22.926" stroke-linecap="round" stroke-linejoin="round"></path><path d="M63.498 37.3551L68.1644 40.0547" stroke="black" stroke-width="2" stroke-miterlimit="22.926" stroke-linecap="round" stroke-linejoin="round"></path><path d="M54.0059 20.875V17.38" stroke="black" stroke-width="2" stroke-miterlimit="22.926" stroke-linecap="round" stroke-linejoin="round"></path></svg>