<svg xmlns="http://www.w3.org/2000/svg" width="108" height="109" viewBox="0 0 108 109" fill="none"><mask id="mask0_971_3585" style="mask-type:luminance" maskUnits="userSpaceOnUse" x="0" y="0" width="109" height="109"><path d="M0.00585938 0.664062H108.006V108.664H0.00585938V0.664062Z" fill="white"></path></mask><g mask="url(#mask0_971_3585)"><path fill-rule="evenodd" clip-rule="evenodd" d="M40.0838 57.6154H16.0371V83.0234H80.5842V68.5843C80.5842 66.264 82.4826 64.3656 84.8029 64.3656H91.9746V35.7601H44.3025V53.3966C44.3025 55.7169 42.4043 57.6154 40.0838 57.6154Z" fill="#F69064"></path><path d="M79.5315 91.4609H11.3746C9.29961 91.4609 7.60156 89.7633 7.60156 87.6881V58.6701M45.3592 27.3226H96.6412C98.7164 27.3226 100.414 29.0203 100.414 31.0951V63.3109" stroke="black" stroke-width="2" stroke-miterlimit="22.926" stroke-linecap="round" stroke-linejoin="round"></path><path d="M38.915 106.555H69.0977" stroke="black" stroke-width="2" stroke-miterlimit="22.926" stroke-linecap="round" stroke-linejoin="round"></path><path d="M42.7031 106.5L46.7177 91.5171" stroke="black" stroke-width="2" stroke-miterlimit="22.926" stroke-linecap="round" stroke-linejoin="round"></path><path d="M65.3107 106.5L61.2959 91.5171" stroke="black" stroke-width="2" stroke-miterlimit="22.926" stroke-linecap="round" stroke-linejoin="round"></path><path d="M84.8027 64.3672H101.678C103.998 64.3672 105.896 66.2656 105.896 68.5859V102.336C105.896 104.656 103.998 106.555 101.678 106.555H84.8027C82.4824 106.555 80.584 104.656 80.584 102.336V68.5859C80.584 66.2656 82.4824 64.3672 84.8027 64.3672Z" stroke="black" stroke-width="2" stroke-miterlimit="22.926" stroke-linecap="round" stroke-linejoin="round"></path><path d="M6.3342 2.77323H40.084C42.4045 2.77323 44.3027 4.67166 44.3027 6.99198V53.3984C44.3027 55.7188 42.4045 57.6172 40.084 57.6172H6.3342C4.01367 57.6172 2.11523 55.7188 2.11523 53.3984V6.99198C2.11523 4.67166 4.01367 2.77323 6.3342 2.77323Z" stroke="black" stroke-width="2" stroke-miterlimit="22.926" stroke-linecap="round" stroke-linejoin="round"></path><path d="M81.7607 98.1172H104.721" stroke="black" stroke-width="2" stroke-miterlimit="22.926" stroke-linecap="round" stroke-linejoin="round"></path><path d="M81.7607 72.8047H104.721" stroke="black" stroke-width="2" stroke-miterlimit="22.926" stroke-linecap="round" stroke-linejoin="round"></path><path d="M3.34375 11.2109H43.0732" stroke="black" stroke-width="2" stroke-miterlimit="22.926" stroke-linecap="round" stroke-linejoin="round"></path><path d="M3.34375 49.1797H43.0732" stroke="black" stroke-width="2" stroke-miterlimit="22.926" stroke-linecap="round" stroke-linejoin="round"></path></g></svg>